<svg width="21" height="20" viewBox="0 0 21 20" fill="none" xmlns="http://www.w3.org/2000/svg">
<path d="M2.69995 9.625C2.69995 6.79657 2.69995 5.38236 3.57863 4.50368C4.45731 3.625 5.87152 3.625 8.69995 3.625H11.7C14.5284 3.625 15.9426 3.625 16.8213 4.50368C17.7 5.38236 17.7 6.79657 17.7 9.625V11.125C17.7 13.9534 17.7 15.3676 16.8213 16.2463C15.9426 17.125 14.5284 17.125 11.7 17.125H8.69995C5.87152 17.125 4.45731 17.125 3.57863 16.2463C2.69995 15.3676 2.69995 13.9534 2.69995 11.125V9.625Z" stroke="#212121" stroke-width="1.5"/>
<path d="M6.44995 3.625V2.5" stroke="#212121" stroke-width="1.5" stroke-linecap="round"/>
<path d="M13.95 3.625V2.5" stroke="#212121" stroke-width="1.5" stroke-linecap="round"/>
<path d="M3.07495 7.375H17.325" stroke="#212121" stroke-width="1.5" stroke-linecap="round"/>
<path d="M14.2 13.375C14.2 13.5131 14.088 13.625 13.95 13.625C13.8119 13.625 13.7 13.5131 13.7 13.375C13.7 13.2369 13.8119 13.125 13.95 13.125C14.088 13.125 14.2 13.2369 14.2 13.375ZM14.2 10.375C14.2 10.5131 14.088 10.625 13.95 10.625C13.8119 10.625 13.7 10.5131 13.7 10.375C13.7 10.2369 13.8119 10.125 13.95 10.125C14.088 10.125 14.2 10.2369 14.2 10.375Z" fill="#212121" stroke="#212121"/>
<path d="M10.45 13.375C10.45 13.5131 10.338 13.625 10.2 13.625C10.0619 13.625 9.94995 13.5131 9.94995 13.375C9.94995 13.2369 10.0619 13.125 10.2 13.125C10.338 13.125 10.45 13.2369 10.45 13.375ZM10.45 10.375C10.45 10.5131 10.338 10.625 10.2 10.625C10.0619 10.625 9.94995 10.5131 9.94995 10.375C9.94995 10.2369 10.0619 10.125 10.2 10.125C10.338 10.125 10.45 10.2369 10.45 10.375Z" fill="#212121" stroke="#212121"/>
<path d="M6.69995 13.375C6.69995 13.5131 6.58802 13.625 6.44995 13.625C6.31188 13.625 6.19995 13.5131 6.19995 13.375C6.19995 13.2369 6.31188 13.125 6.44995 13.125C6.58802 13.125 6.69995 13.2369 6.69995 13.375ZM6.69995 10.375C6.69995 10.5131 6.58802 10.625 6.44995 10.625C6.31188 10.625 6.19995 10.5131 6.19995 10.375C6.19995 10.2369 6.31188 10.125 6.44995 10.125C6.58802 10.125 6.69995 10.2369 6.69995 10.375Z" fill="#212121" stroke="#212121"/>
</svg>
