<svg width="300" height="253" viewBox="0 0 300 253" fill="none" xmlns="http://www.w3.org/2000/svg">
<path d="M289.572 130.197C289.572 163.873 275.817 194.229 253.762 216.047C232.181 237.628 202.299 250.671 169.335 250.671C136.608 250.671 106.726 237.391 84.9079 216.047C62.8526 194.229 49.0977 163.873 49.0977 130.197C49.0977 63.5566 102.932 9.72266 169.335 9.72266C235.738 9.72266 289.572 63.7938 289.572 130.197Z" fill="#F1F3F9" stroke="#D6DCE8" stroke-width="2" stroke-miterlimit="10"/>
<path d="M279.133 51.2259C284.504 51.2259 288.857 46.8727 288.857 41.5026C288.857 36.1326 284.504 31.7793 279.133 31.7793C273.763 31.7793 269.41 36.1326 269.41 41.5026C269.41 46.8727 273.763 51.2259 279.133 51.2259Z" fill="#F1F3F9"/>
<path d="M293.355 13.2806C297.022 13.2806 299.995 10.3077 299.995 6.64031C299.995 2.97297 297.022 0 293.355 0C289.688 0 286.715 2.97297 286.715 6.64031C286.715 10.3077 289.688 13.2806 293.355 13.2806Z" fill="#F1F3F9"/>
<path d="M52.8864 50.9896C56.5538 50.9896 59.5267 48.0166 59.5267 44.3493C59.5267 40.682 56.5538 37.709 52.8864 37.709C49.2191 37.709 46.2461 40.682 46.2461 44.3493C46.2461 48.0166 49.2191 50.9896 52.8864 50.9896Z" fill="#F1F3F9"/>
<path d="M12.332 179.051C19.1428 179.051 24.664 173.53 24.664 166.719C24.664 159.908 19.1428 154.387 12.332 154.387C5.52123 154.387 0 159.908 0 166.719C0 173.53 5.52123 179.051 12.332 179.051Z" fill="#F1F3F9"/>
<path d="M276.8 61.147V192.542C276.8 198.011 272.422 202.343 267.056 202.343H69.1389C63.7726 202.343 59.3242 197.94 59.3242 192.542V61.147C59.3242 55.7492 63.702 51.3457 69.1389 51.3457H267.056C272.422 51.3457 276.8 55.7492 276.8 61.147Z" fill="white" stroke="#D6DCE8" stroke-width="2" stroke-miterlimit="10" stroke-linejoin="round"/>
<path d="M276.8 61.147V75.849H59.3242V61.147C59.3242 55.7492 63.702 51.3457 69.1389 51.3457H267.056C272.422 51.3457 276.8 55.7492 276.8 61.147Z" fill="#D6DCE8"/>
<path d="M73.0193 67.2537C75.0471 67.2537 76.691 65.6002 76.691 63.5604C76.691 61.5207 75.0471 59.8672 73.0193 59.8672C70.9915 59.8672 69.3477 61.5207 69.3477 63.5604C69.3477 65.6002 70.9915 67.2537 73.0193 67.2537Z" fill="#AAB2C5"/>
<path d="M85.0271 67.2537C87.0549 67.2537 88.6988 65.6002 88.6988 63.5604C88.6988 61.5207 87.0549 59.8672 85.0271 59.8672C82.9993 59.8672 81.3555 61.5207 81.3555 63.5604C81.3555 65.6002 82.9993 67.2537 85.0271 67.2537Z" fill="#AAB2C5"/>
<path d="M96.9568 67.2537C98.9846 67.2537 100.628 65.6002 100.628 63.5604C100.628 61.5207 98.9846 59.8672 96.9568 59.8672C94.929 59.8672 93.2852 61.5207 93.2852 63.5604C93.2852 65.6002 94.929 67.2537 96.9568 67.2537Z" fill="#AAB2C5"/>
<path d="M104.738 165.336H231.411" stroke="#D5DDEA" stroke-width="2" stroke-miterlimit="10" stroke-linecap="round" stroke-linejoin="round"/>
<path d="M124.711 178.902H211.419" stroke="#D5DDEA" stroke-width="2" stroke-miterlimit="10" stroke-linecap="round" stroke-linejoin="round"/>
<path d="M146.881 127.129V134.445H142.432V141.476H134.101V134.445H115.742V126.064L132.759 102.271H142.503V127.2H146.881V127.129ZM134.101 112.001L123.509 127.129H134.101V112.001Z" fill="#AAB2C5"/>
<path d="M167.781 142.258C158.884 142.258 151.047 134.445 151.047 121.803C151.047 109.16 158.814 101.348 167.781 101.348C176.748 101.348 184.515 109.16 184.515 121.803C184.515 134.445 176.748 142.258 167.781 142.258ZM167.781 134.729C171.947 134.729 176.113 130.539 176.113 121.874C176.113 113.209 171.947 109.018 167.781 109.018C163.615 109.018 159.449 113.209 159.449 121.874C159.449 130.539 163.615 134.729 167.781 134.729Z" fill="#AAB2C5"/>
<path d="M220.455 127.129V134.445H216.007V141.476H207.675V134.445H189.317V126.064L206.334 102.271H216.078V127.2H220.455V127.129ZM207.604 112.001L197.013 127.129H207.604V112.001Z" fill="#AAB2C5"/>
<path d="M267.195 231.354L219.891 184.087L230.735 173.242L278.002 220.547L267.195 231.354Z" fill="#D6DCE8" stroke="#AAB2C5" stroke-width="2" stroke-miterlimit="10"/>
<path d="M283.65 247.988L247.377 211.715C244.348 208.686 244.348 203.75 247.377 200.721C250.406 197.692 255.342 197.692 258.371 200.721L294.644 236.994C297.673 240.023 297.673 244.959 294.644 247.988C291.615 251.017 286.679 251.017 283.65 247.988Z" fill="#D6DCE8" stroke="#AAB2C5" stroke-width="2" stroke-miterlimit="10"/>
<path d="M281.064 250.305L234.395 203.636C233.311 202.551 233.311 200.794 234.395 199.672L246.324 187.743C247.409 186.659 249.166 186.659 250.288 187.743L296.957 234.412C298.042 235.496 298.042 237.254 296.957 238.376L285.028 250.305C283.906 251.389 282.149 251.389 281.064 250.305Z" fill="#D6DCE8" stroke="#AAB2C5" stroke-width="2" stroke-miterlimit="10"/>
<path d="M166.343 31.7793C116.832 31.7793 76.707 71.9041 76.707 121.415C76.707 170.888 116.832 211.051 166.305 211.051C215.816 211.051 255.941 170.926 255.941 121.415C255.941 71.9041 215.816 31.7793 166.343 31.7793ZM166.343 194.447C126.592 194.447 94.3948 161.727 94.3948 121.378C94.3948 81.0284 126.592 48.3453 166.343 48.3453C206.094 48.3453 238.291 81.0658 238.291 121.415C238.291 161.764 206.056 194.447 166.343 194.447Z" fill="#D6DCE8" stroke="#AAB2C5" stroke-width="2" stroke-miterlimit="10"/>
</svg>
