<svg width="303" height="190" viewBox="0 0 303 190" fill="none" xmlns="http://www.w3.org/2000/svg">
<path d="M244.554 27.2773H36.2205C31.6372 27.2773 27.6094 31.3051 27.6094 35.8885V179.222C27.6094 183.805 31.6372 182.138 36.2205 182.138H243.998C248.582 182.138 252.609 183.805 252.609 179.222V35.8885C253.165 31.3051 249.137 27.2773 244.554 27.2773Z" fill="#F1F3F9" stroke="#D6DCE8" stroke-width="2" stroke-miterlimit="10" stroke-linejoin="round"/>
<path d="M279.417 174.086V178.669C279.417 183.808 274.833 188.391 269.694 188.391H11.2222C6.08333 188.391 1.5 183.808 1.5 178.669V174.086H279.417Z" fill="white" stroke="#D6DCE8" stroke-width="2.1011" stroke-miterlimit="10"/>
<path d="M167.047 174.086V175.753C167.047 178.669 164.825 181.447 161.352 181.447H118.991C116.075 181.447 113.297 179.225 113.297 175.753V174.086H167.047Z" fill="#F1F3F9" stroke="#D6DCE8" stroke-width="2" stroke-miterlimit="10" stroke-linejoin="round"/>
<path d="M228.302 46.031V159.642C228.025 164.364 224.275 168.253 219.414 168.253H51.0803C46.0803 168.253 42.1914 164.364 42.1914 159.642V46.031C42.1914 41.3088 46.0803 37.4199 51.0803 37.4199H219.552C224.552 37.4199 228.302 41.3088 228.302 46.031Z" fill="#F1F3F9" stroke="#D6DCE8" stroke-width="2.1011" stroke-miterlimit="10"/>
<path d="M52.329 50.4744C53.9957 50.4744 55.3845 49.0855 55.3845 47.4188C55.3845 45.7522 53.9957 44.3633 52.329 44.3633C50.6623 44.3633 49.2734 45.7522 49.2734 47.4188C49.2734 49.0855 50.6623 50.4744 52.329 50.4744Z" fill="#D6DCE8"/>
<path d="M61.3563 50.4744C63.023 50.4744 64.4119 49.0855 64.4119 47.4188C64.4119 45.7522 63.023 44.3633 61.3563 44.3633C59.6897 44.3633 58.3008 45.7522 58.3008 47.4188C58.3008 49.0855 59.6897 50.4744 61.3563 50.4744Z" fill="#D6DCE8"/>
<path d="M70.6649 50.4744C72.3316 50.4744 73.7205 49.0855 73.7205 47.4188C73.7205 45.7522 72.3316 44.3633 70.6649 44.3633C68.9983 44.3633 67.6094 45.7522 67.6094 47.4188C67.6094 49.0855 68.9983 50.4744 70.6649 50.4744Z" fill="#F1F3F9"/>
<path opacity="0.4" d="M228.307 46.0291V156.307H63.0295C58.0295 156.307 54.1406 152.418 54.1406 147.696V37.418H219.418C224.557 37.418 228.307 41.3069 228.307 46.0291Z" fill="#D6DDE8"/>
<path d="M247.474 27.0017V140.613C247.474 140.752 247.474 141.029 247.474 141.168C247.058 145.752 243.308 149.224 238.724 149.224H70.2522C65.2522 149.224 61.3633 145.335 61.3633 140.613V27.0017C61.3633 22.2795 65.2522 18.3906 70.2522 18.3906H238.724C243.724 18.3906 247.474 22.1406 247.474 27.0017Z" fill="#F1F3F9" stroke="#D6DCE8" stroke-width="2.1011" stroke-miterlimit="10"/>
<path d="M71.497 31.4451C73.1636 31.4451 74.5525 30.0562 74.5525 28.3895C74.5525 26.7229 73.1636 25.334 71.497 25.334C69.8303 25.334 68.4414 26.7229 68.4414 28.3895C68.4414 30.0562 69.8303 31.4451 71.497 31.4451Z" fill="#D6DCE8"/>
<path d="M80.5243 31.4451C82.191 31.4451 83.5799 30.0562 83.5799 28.3895C83.5799 26.7229 82.191 25.334 80.5243 25.334C78.8576 25.334 77.4688 26.7229 77.4688 28.3895C77.4688 30.0562 78.8576 31.4451 80.5243 31.4451Z" fill="#D6DCE8"/>
<path d="M89.8368 31.4451C91.5035 31.4451 92.8924 30.0562 92.8924 28.3895C92.8924 26.7229 91.5035 25.334 89.8368 25.334C88.1701 25.334 86.7812 26.7229 86.7812 28.3895C86.7812 30.0562 88.1701 31.4451 89.8368 31.4451Z" fill="#F1F3F9"/>
<path opacity="0.4" d="M247.463 27V140.611C247.463 140.75 247.463 141.028 247.463 141.167H83.4358C78.4358 141.167 74.5469 137.278 74.5469 132.556V18.8056C74.5469 18.6667 74.5469 18.3889 74.5469 18.25H238.575C243.713 18.3889 247.463 22.1389 247.463 27Z" fill="#D6DDE8"/>
<path d="M267.189 124.222C266.911 128.944 263.161 132.833 258.3 132.833H89.967C84.967 132.833 81.0781 128.944 81.0781 124.222V10.6111C81.0781 5.88889 84.967 2 89.967 2H258.439C263.439 2 267.328 5.88889 267.328 10.6111V124.222H267.189Z" fill="white" stroke="#D6DCE8" stroke-width="2.1011" stroke-miterlimit="10"/>
<path d="M81.0781 21.8594H266.911" stroke="#D6DCE8" stroke-width="2.1011" stroke-miterlimit="10"/>
<path d="M91.2157 15.1934C92.8824 15.1934 94.2713 13.8045 94.2713 12.1378C94.2713 10.4711 92.8824 8.94336 91.2157 8.94336C89.549 8.94336 88.1602 10.3322 88.1602 11.9989C88.1602 13.6656 89.549 15.1934 91.2157 15.1934Z" fill="#AAB2C5"/>
<path d="M100.243 15.1934C101.91 15.1934 103.299 13.8045 103.299 12.1378C103.299 10.4711 101.91 8.94336 100.243 8.94336C98.5764 8.94336 97.1875 10.3322 97.1875 11.9989C97.1875 13.6656 98.5764 15.1934 100.243 15.1934Z" fill="#AAB2C5"/>
<path d="M109.552 15.1934C111.218 15.1934 112.607 13.8045 112.607 12.1378C112.607 10.4711 111.218 8.94336 109.552 8.94336C107.885 8.94336 106.496 10.3322 106.496 11.9989C106.496 13.6656 107.746 15.1934 109.552 15.1934Z" fill="#AAB2C5"/>
<path d="M162.382 53.2494C162.382 56.8852 159.434 59.8327 155.798 59.8327C152.162 59.8327 149.215 56.8852 149.215 53.2494C149.215 49.6135 152.162 46.666 155.798 46.666C159.434 46.666 162.382 49.6135 162.382 53.2494Z" fill="#AAB2C5" stroke="white"/>
<path d="M196.276 53.2494C196.276 56.8852 193.329 59.8327 189.693 59.8327C186.057 59.8327 183.109 56.8852 183.109 53.2494C183.109 49.6135 186.057 46.666 189.693 46.666C193.329 46.666 196.276 49.6135 196.276 53.2494Z" fill="#AAB2C5" stroke="white"/>
<path d="M187.606 89.6376H157.884C153.162 89.6376 150.523 84.3598 153.3 80.4709C155.384 77.5542 158.023 75.1931 161.078 73.3876C164.55 71.4431 168.578 70.332 172.745 70.332C177.745 70.332 182.328 71.8598 186.217 74.4987C188.578 76.1654 190.662 78.1098 192.328 80.4709C194.967 84.3598 192.328 89.6376 187.606 89.6376Z" fill="#D6DCE8" stroke="#D6DCE8" stroke-width="1.7035" stroke-miterlimit="10"/>
<path d="M183.158 89.6378H162.464C162.325 89.36 162.325 89.0822 162.464 88.8045C163.991 84.4989 168.019 81.4434 172.88 81.4434C177.741 81.4434 181.769 84.4989 183.297 88.8045C183.297 89.0822 183.297 89.36 183.158 89.6378Z" fill="#AAB2C5"/>
<path d="M186.215 75.8874V76.9985C186.215 77.8318 185.52 78.3874 184.826 78.3874H162.604C161.77 78.3874 161.215 77.6929 161.215 76.9985V74.7763C164.687 72.8318 168.715 71.7207 172.882 71.7207C177.743 71.7207 182.326 73.2485 186.215 75.8874Z" fill="white"/>
<path d="M120.949 51.1564C120.949 53.9388 118.788 56.1647 116.088 56.1647C113.387 56.1647 111.227 53.9388 111.227 51.1564C111.227 49.0417 114.143 42.6978 115.44 39.9154C115.656 39.3589 116.412 39.3589 116.736 39.9154C118.032 42.5865 120.949 48.9304 120.949 51.1564Z" fill="#D6DCE8"/>
<path d="M293.305 25.1953C295.527 27.2786 295.805 30.7508 293.722 33.1119C291.639 35.3342 288.166 35.6119 285.805 33.5286C284 32.0008 280.944 24.7786 279.694 21.5842C279.416 21.0286 279.972 20.3342 280.666 20.473C284 21.3064 291.5 23.5286 293.305 25.1953Z" fill="#D6DCE8"/>
<path d="M292.474 49.7773C294.14 52.4162 293.446 55.7495 290.807 57.4162C288.168 59.0829 284.835 58.3884 283.168 55.7495C281.918 53.8051 280.807 46.0273 280.39 42.5551C280.251 41.8607 281.085 41.444 281.64 41.7218C284.557 43.5273 291.224 47.694 292.474 49.7773Z" fill="#D6DCE8"/>
<path d="M109.832 63.6583C109.832 66.4407 107.671 68.6667 104.97 68.6667C102.27 68.6667 100.109 66.4407 100.109 63.6583C100.109 61.5437 103.026 55.1998 104.322 52.4174C104.538 51.8609 105.295 51.8609 105.619 52.4174C106.915 55.1998 109.832 61.5437 109.832 63.6583Z" fill="#D6DCE8"/>
<path d="M244.551 89.6406H273.996C275.801 89.6406 277.468 90.3351 278.718 91.5851L299.551 112.418C300.801 113.668 301.496 115.335 301.496 117.141V146.446C301.496 148.252 300.801 149.918 299.551 151.168L278.996 171.724C277.746 172.974 276.079 173.668 274.273 173.668H244.551C242.746 173.668 241.079 172.974 239.829 171.724L218.718 150.613C217.468 149.363 216.773 147.696 216.773 145.891V117.141C216.773 115.335 217.468 113.668 218.718 112.418L239.69 91.5851C241.079 90.3351 242.746 89.6406 244.551 89.6406Z" fill="#D6DCE8" stroke="#AAB2C5" stroke-width="2" stroke-miterlimit="10" stroke-linejoin="round"/>
<path d="M264.975 123.374L264.976 123.363L264.978 123.352C265.125 122.226 265.125 121.242 265.125 120.322V120.302V106.364C265.125 104.776 263.748 103.832 262.616 103.651L262.537 103.639H262.458H255.931C254.449 103.639 253.125 104.841 253.125 106.364V120.302L253.125 120.341C253.125 121.375 253.125 122.367 253.275 123.371L253.275 123.374L254.803 133.33L254.805 133.34L254.807 133.35C254.925 134.032 255.326 134.599 255.807 134.986C256.289 135.374 256.921 135.639 257.597 135.639H260.653C262.12 135.639 263.223 134.617 263.443 133.35L263.445 133.34L263.447 133.33L264.975 123.374Z" fill="white" stroke="#AAB2C5" stroke-width="2"/>
<path d="M255.658 156.611H262.463C264.126 156.611 265.546 155.191 265.546 153.528V146.722C265.546 145.059 264.126 143.639 262.463 143.639H255.658C253.994 143.639 252.574 145.059 252.574 146.722V153.528C252.574 155.191 253.994 156.611 255.658 156.611Z" fill="white" stroke="#AAB2C5" stroke-width="2"/>
</svg>
