<svg width="303" height="188" viewBox="0 0 303 188" fill="none" xmlns="http://www.w3.org/2000/svg">
<path d="M32.3892 182.627H69.0156V185.599H32.3892V182.627Z" fill="#E7EBF2"/>
<path d="M34.4954 176.452C34.8975 175.217 36.049 174.381 37.348 174.381H64.1527C65.4517 174.381 66.6032 175.217 67.0053 176.452L69.0156 182.627H32.4851L34.4954 176.452Z" fill="#E7EBF2"/>
<path d="M21.0752 56.2539V67.4719H125.969L115.805 57.2127L21.0752 56.2539Z" stroke="#E7EBF2" stroke-width="2" stroke-miterlimit="10" stroke-linejoin="round"/>
<path d="M80.6165 67.4721V57.2129L92.3139 67.4721V57.2129L104.107 67.4721V57.2129L115.805 67.4721V57.5964V57.2129" stroke="#E7EBF2" stroke-width="2" stroke-miterlimit="10" stroke-linejoin="round"/>
<path d="M33.6328 67.4735V56.4473" stroke="#E7EBF2" stroke-width="2" stroke-miterlimit="10" stroke-linejoin="round"/>
<path d="M68.8242 57.2129V67.4721L57.1268 57.2129" stroke="#E7EBF2" stroke-width="2" stroke-miterlimit="10" stroke-linejoin="round"/>
<path d="M57.1289 57.2129V67.4721" stroke="#E7EBF2" stroke-width="2" stroke-miterlimit="10" stroke-linejoin="round"/>
<path d="M44.4709 169.586H57.0312V45.8038L50.7031 39.9551L44.4709 45.8038V169.586Z" stroke="#E7EBF2" stroke-width="2" stroke-miterlimit="10" stroke-linejoin="round"/>
<path d="M57.0312 46.4746H44.4709" stroke="#E7EBF2" stroke-width="2" stroke-miterlimit="10"/>
<path d="M57.0312 78.1152H44.4709" stroke="#E7EBF2" stroke-width="2" stroke-miterlimit="10" stroke-linejoin="round"/>
<path d="M57.0312 88.2793H44.4709" stroke="#E7EBF2" stroke-width="2" stroke-miterlimit="10"/>
<path d="M57.0312 98.3477H44.4709" stroke="#E7EBF2" stroke-width="2" stroke-miterlimit="10"/>
<path d="M57.0312 108.51H44.4709" stroke="#E7EBF2" stroke-width="2" stroke-miterlimit="10"/>
<path d="M57.0312 118.674H44.4709" stroke="#E7EBF2" stroke-width="2" stroke-miterlimit="10"/>
<path d="M57.0312 128.836H44.4709" stroke="#E7EBF2" stroke-width="2" stroke-miterlimit="10"/>
<path d="M57.0312 138.904H44.4709" stroke="#E7EBF2" stroke-width="2" stroke-miterlimit="10"/>
<path d="M57.0312 149.066H44.4709" stroke="#E7EBF2" stroke-width="2" stroke-miterlimit="10"/>
<path d="M57.0312 159.23H44.4709" stroke="#E7EBF2" stroke-width="2" stroke-miterlimit="10"/>
<path d="M106.504 57.1177L50.7013 39.9551L24.1424 56.3507" stroke="#E7EBF2" stroke-width="2" stroke-miterlimit="10" stroke-linejoin="round"/>
<path d="M57.1289 67.4732L44.4727 56.6387" stroke="#E7EBF2" stroke-width="2" stroke-miterlimit="10" stroke-linejoin="round"/>
<path d="M44.853 67.8555L56.7422 77.7312" stroke="#E7EBF2" stroke-width="2" stroke-miterlimit="10" stroke-linejoin="round"/>
<path d="M44.8548 46.666L56.8398 56.2541" stroke="#E7EBF2" stroke-width="2" stroke-miterlimit="10" stroke-linejoin="round"/>
<path d="M34.0167 56.6387L43.9883 67.2814" stroke="#E7EBF2" stroke-width="2" stroke-miterlimit="10" stroke-linejoin="round"/>
<path d="M33.3477 67.2814L21.1708 56.6387" stroke="#E7EBF2" stroke-width="2" stroke-miterlimit="10" stroke-linejoin="round"/>
<path d="M69.2042 57.1172L80.2305 66.9929" stroke="#E7EBF2" stroke-width="2" stroke-miterlimit="10" stroke-linejoin="round"/>
<path d="M44.9489 78.4023L56.7422 87.8945" stroke="#E7EBF2" stroke-width="2" stroke-miterlimit="10" stroke-linejoin="round"/>
<path d="M44.9489 88.6621L56.7422 97.9625" stroke="#E7EBF2" stroke-width="2" stroke-miterlimit="10" stroke-linejoin="round"/>
<path d="M44.853 98.7305L56.7422 108.127" stroke="#E7EBF2" stroke-width="2" stroke-miterlimit="10" stroke-linejoin="round"/>
<path d="M44.853 108.99L56.7422 118.291" stroke="#E7EBF2" stroke-width="2" stroke-miterlimit="10" stroke-linejoin="round"/>
<path d="M44.853 119.057L56.7422 128.357" stroke="#E7EBF2" stroke-width="2" stroke-miterlimit="10" stroke-linejoin="round"/>
<path d="M44.853 129.125L56.7422 138.521" stroke="#E7EBF2" stroke-width="2" stroke-miterlimit="10" stroke-linejoin="round"/>
<path d="M44.853 139.287L56.7422 148.683" stroke="#E7EBF2" stroke-width="2" stroke-miterlimit="10" stroke-linejoin="round"/>
<path d="M44.853 149.451L56.7422 158.847" stroke="#E7EBF2" stroke-width="2" stroke-miterlimit="10" stroke-linejoin="round"/>
<path d="M44.853 159.709L56.7422 169.009" stroke="#E7EBF2" stroke-width="2" stroke-miterlimit="10" stroke-linejoin="round"/>
<path d="M39.1804 169.49H62.2188C63.3233 169.49 64.2188 170.386 64.2188 171.49V174.38H37.1804V171.49C37.1804 170.386 38.0758 169.49 39.1804 169.49Z" fill="#E7EBF2"/>
<path d="M70.7425 76.7724L63.5515 83.9634C63.0721 84.4428 62.4009 84.7305 61.8256 84.7305H43.8001V67.8555H71.6055V74.9506C71.4137 75.7177 71.2219 76.293 70.7425 76.7724Z" fill="#E7EBF2"/>
<path d="M54.125 75.5156L47.6875 75.5156C47.1352 75.5156 46.6875 75.0679 46.6875 74.5156L46.6875 71.6257C46.6875 71.0734 47.1352 70.6257 47.6875 70.6257L54.125 70.6257C54.6773 70.6257 55.125 71.0734 55.125 71.6257L55.125 74.5156C55.125 75.0679 54.6773 75.5156 54.125 75.5156Z" fill="white"/>
<path d="M65.0273 75.5156L58.5898 75.5156C58.0376 75.5156 57.5898 75.0679 57.5898 74.5156L57.5898 71.6257C57.5898 71.0734 58.0376 70.6257 58.5898 70.6257L65.0273 70.6257C65.5796 70.6257 66.0273 71.0734 66.0273 71.6257L66.0273 74.5156C66.0273 75.0679 65.5796 75.5156 65.0273 75.5156Z" fill="white"/>
<path d="M22.9508 155.621H19.1914V186.303H22.9508V155.621Z" fill="#F1F3F9" stroke="#D6DCE8" stroke-width="2" stroke-miterlimit="10" stroke-linejoin="round"/>
<path d="M49.6266 155.621H45.8672V186.303H49.6266V155.621Z" fill="#F1F3F9" stroke="#D6DCE8" stroke-width="2" stroke-miterlimit="10" stroke-linejoin="round"/>
<path d="M163.138 186.171C152.951 186.413 140.824 186.171 132.213 186.05C123.603 186.292 111.476 186.413 101.289 186.171C111.355 180.471 114.75 169.92 115.357 162.887H148.949C149.676 169.92 153.072 180.471 163.138 186.171Z" fill="#F1F3F9" stroke="#D6DCE8" stroke-width="2" stroke-miterlimit="10"/>
<path d="M195.4 73.6422V160.837C195.4 163.019 193.702 164.596 191.641 164.596H72.7946C70.733 164.596 69.0352 162.898 69.0352 160.837V73.6422C69.0352 71.5806 70.733 69.8828 72.7946 69.8828H191.641C193.702 69.8828 195.4 71.4593 195.4 73.6422Z" fill="white" stroke="#D6DCE8" stroke-width="2" stroke-miterlimit="10" stroke-linejoin="round"/>
<path d="M195.396 73.6422V148.831H69.1523V73.6422C69.1523 71.5806 70.8501 69.8828 72.9118 69.8828H191.758C193.698 69.8828 195.396 71.4593 195.396 73.6422Z" fill="#F1F3F9" stroke="#D6DCE8" stroke-width="2" stroke-miterlimit="10"/>
<path d="M190.91 74.4902H73.6406V144.464H190.789V74.4902H190.91Z" fill="white"/>
<path d="M132.216 159.744C133.957 159.744 135.369 158.332 135.369 156.591C135.369 154.849 133.957 153.438 132.216 153.438C130.474 153.438 129.062 154.849 129.062 156.591C129.062 158.332 130.474 159.744 132.216 159.744Z" fill="#D6DCE8"/>
<path d="M264.727 159.018H261.453V185.94H264.727V159.018Z" fill="#F1F3F9" stroke="#D6DCE8" stroke-width="2" stroke-miterlimit="10" stroke-linejoin="round"/>
<path d="M288.13 159.018H284.855V185.94H288.13V159.018Z" fill="#F1F3F9" stroke="#D6DCE8" stroke-width="2" stroke-miterlimit="10" stroke-linejoin="round"/>
<path d="M292.254 160.23H257.812V171.266H292.254V160.23Z" fill="white" stroke="#D6DCE8" stroke-width="2" stroke-miterlimit="10"/>
<path d="M266.179 160.23L262.541 171.266H258.418L261.935 160.23H266.179Z" fill="#D6DCE8"/>
<path d="M274.547 160.23L270.908 171.266H266.785L270.302 160.23H274.547Z" fill="#D6DCE8"/>
<path d="M282.914 160.23L279.276 171.266H275.152L278.669 160.23H282.914Z" fill="#D6DCE8"/>
<path d="M291.281 160.23L287.643 171.266H283.52L287.036 160.23H291.281Z" fill="#D6DCE8"/>
<path d="M54.3584 157.076H15.0664V169.688H54.3584V157.076Z" fill="white" stroke="#D6DCE8" stroke-width="2" stroke-miterlimit="10"/>
<path d="M24.5247 157.076L20.4015 169.567H15.6719L19.7951 157.076H24.5247Z" fill="#D6DCE8"/>
<path d="M34.1067 157.076L29.9835 169.567H25.2539L29.2559 157.076H34.1067Z" fill="#D6DCE8"/>
<path d="M43.6888 157.076L39.5655 169.567H34.8359L38.8379 157.076H43.6888Z" fill="#D6DCE8"/>
<path d="M53.2669 157.076L49.1437 169.567H44.4141L48.416 157.076H53.2669Z" fill="#D6DCE8"/>
<path d="M147.617 36.0488V50.844" stroke="#D6DCE8" stroke-width="2" stroke-miterlimit="10" stroke-linejoin="round"/>
<path d="M147.68 57.2704C150.058 57.2704 151.985 55.343 151.985 52.9653C151.985 50.5876 150.058 48.6602 147.68 48.6602C145.302 48.6602 143.375 50.5876 143.375 52.9653C143.375 55.343 145.302 57.2704 147.68 57.2704Z" fill="#D6DCE8"/>
<path d="M143.496 64.4262C143.496 67.0941 145.922 69.277 148.832 68.5494C150.409 68.1856 151.621 66.9729 151.985 65.3963C152.47 63.0922 151.136 60.9093 149.075 60.3029C148.347 60.0604 147.862 59.454 147.862 58.6051V54.8457" stroke="#D6DCE8" stroke-width="2" stroke-miterlimit="10" stroke-linejoin="round"/>
<path d="M252.396 182.299H206.07V186.058H252.396V182.299Z" fill="#F1F3F9" stroke="#D6DCE8" stroke-width="2" stroke-miterlimit="10" stroke-linejoin="round"/>
<path d="M248.879 171.871H209.466L206.07 182.3H252.275L248.879 171.871Z" fill="#F1F3F9" stroke="#D6DCE8" stroke-width="2" stroke-miterlimit="10" stroke-linejoin="round"/>
<path d="M266.702 22.4668V36.6556H134.031L146.886 23.6795L266.702 22.4668Z" stroke="#D6DCE8" stroke-width="2" stroke-miterlimit="10" stroke-linejoin="round"/>
<path d="M191.393 36.6538V23.6777L176.598 36.6538V23.6777L161.682 36.6538V23.6777L146.887 36.6538V24.1628V23.6777" stroke="#D6DCE8" stroke-width="2" stroke-miterlimit="10" stroke-linejoin="round"/>
<path d="M250.816 36.6552V22.709" stroke="#D6DCE8" stroke-width="2" stroke-miterlimit="10" stroke-linejoin="round"/>
<path d="M206.309 23.6777V36.6538L221.104 23.6777" stroke="#D6DCE8" stroke-width="2" stroke-miterlimit="10" stroke-linejoin="round"/>
<path d="M221.105 23.6777V36.6538" stroke="#D6DCE8" stroke-width="2" stroke-miterlimit="10" stroke-linejoin="round"/>
<path d="M237.113 165.809H221.227V9.24718L229.23 1.84961L237.113 9.24718V165.809Z" stroke="#D6DCE8" stroke-width="2" stroke-miterlimit="10" stroke-linejoin="round"/>
<path d="M221.227 10.0957H237.113" stroke="#D6DCE8" stroke-width="2" stroke-miterlimit="10"/>
<path d="M221.227 50.1152H237.113" stroke="#D6DCE8" stroke-width="2" stroke-miterlimit="10" stroke-linejoin="round"/>
<path d="M221.227 62.9707H237.113" stroke="#D6DCE8" stroke-width="2" stroke-miterlimit="10"/>
<path d="M221.227 75.7051H237.113" stroke="#D6DCE8" stroke-width="2" stroke-miterlimit="10"/>
<path d="M221.227 88.5586H237.113" stroke="#D6DCE8" stroke-width="2" stroke-miterlimit="10"/>
<path d="M221.227 101.414H237.113" stroke="#D6DCE8" stroke-width="2" stroke-miterlimit="10"/>
<path d="M221.227 114.268H237.113" stroke="#D6DCE8" stroke-width="2" stroke-miterlimit="10"/>
<path d="M221.227 127.002H237.113" stroke="#D6DCE8" stroke-width="2" stroke-miterlimit="10"/>
<path d="M221.227 139.857H237.113" stroke="#D6DCE8" stroke-width="2" stroke-miterlimit="10"/>
<path d="M221.227 152.711H237.113" stroke="#D6DCE8" stroke-width="2" stroke-miterlimit="10"/>
<path d="M158.652 23.5572L229.232 1.84961L262.825 22.5871" stroke="#D6DCE8" stroke-width="2" stroke-miterlimit="10" stroke-linejoin="round"/>
<path d="M221.105 36.6549L237.113 22.9512" stroke="#D6DCE8" stroke-width="2" stroke-miterlimit="10" stroke-linejoin="round"/>
<path d="M236.628 37.1406L221.59 49.6316" stroke="#D6DCE8" stroke-width="2" stroke-miterlimit="10" stroke-linejoin="round"/>
<path d="M236.628 10.3379L221.469 22.4651" stroke="#D6DCE8" stroke-width="2" stroke-miterlimit="10" stroke-linejoin="round"/>
<path d="M250.335 22.9512L237.723 36.4123" stroke="#D6DCE8" stroke-width="2" stroke-miterlimit="10" stroke-linejoin="round"/>
<path d="M251.176 36.4123L266.577 22.9512" stroke="#D6DCE8" stroke-width="2" stroke-miterlimit="10" stroke-linejoin="round"/>
<path d="M205.825 23.5566L191.879 36.0476" stroke="#D6DCE8" stroke-width="2" stroke-miterlimit="10" stroke-linejoin="round"/>
<path d="M236.506 50.4805L221.59 62.4864" stroke="#D6DCE8" stroke-width="2" stroke-miterlimit="10" stroke-linejoin="round"/>
<path d="M236.506 63.4551L221.59 75.2184" stroke="#D6DCE8" stroke-width="2" stroke-miterlimit="10" stroke-linejoin="round"/>
<path d="M236.628 76.1895L221.59 88.0741" stroke="#D6DCE8" stroke-width="2" stroke-miterlimit="10" stroke-linejoin="round"/>
<path d="M236.628 89.166L221.59 100.929" stroke="#D6DCE8" stroke-width="2" stroke-miterlimit="10" stroke-linejoin="round"/>
<path d="M236.628 101.898L221.59 113.662" stroke="#D6DCE8" stroke-width="2" stroke-miterlimit="10" stroke-linejoin="round"/>
<path d="M236.628 114.633L221.59 126.517" stroke="#D6DCE8" stroke-width="2" stroke-miterlimit="10" stroke-linejoin="round"/>
<path d="M236.628 127.488L221.59 139.373" stroke="#D6DCE8" stroke-width="2" stroke-miterlimit="10" stroke-linejoin="round"/>
<path d="M236.628 140.342L221.59 152.226" stroke="#D6DCE8" stroke-width="2" stroke-miterlimit="10" stroke-linejoin="round"/>
<path d="M236.628 153.318L221.59 165.082" stroke="#D6DCE8" stroke-width="2" stroke-miterlimit="10" stroke-linejoin="round"/>
<path d="M246.331 165.688H212.133V171.872H246.331V165.688Z" fill="#F1F3F9" stroke="#D6DCE8" stroke-width="2" stroke-miterlimit="10" stroke-linejoin="round"/>
<path d="M94.7401 140.22H79.7024C78.4897 140.22 77.5195 139.25 77.5195 138.037V80.0696C77.5195 78.8569 78.4897 77.8867 79.7024 77.8867H94.7401C95.9528 77.8867 96.923 78.8569 96.923 80.0696V138.037C96.923 139.25 95.9528 140.22 94.7401 140.22Z" fill="#F1F3F9"/>
<path d="M87.2241 89.5283C89.2334 89.5283 90.8622 87.8994 90.8622 85.8901C90.8622 83.8808 89.2334 82.252 87.2241 82.252C85.2148 82.252 83.5859 83.8808 83.5859 85.8901C83.5859 87.8994 85.2148 89.5283 87.2241 89.5283Z" fill="#D6DCE8"/>
<path d="M93.6483 94.8638H80.7935C80.551 94.8638 80.4297 94.7425 80.4297 94.5V93.5298C80.4297 93.2873 80.551 93.166 80.7935 93.166H93.527C93.7696 93.166 93.8908 93.2873 93.8908 93.5298V94.5C94.0121 94.7425 93.7696 94.8638 93.6483 94.8638Z" fill="#D6DCE8"/>
<path d="M93.6483 99.9576H80.7935C80.551 99.9576 80.4297 99.8363 80.4297 99.5938V98.6236C80.4297 98.381 80.551 98.2598 80.7935 98.2598H93.527C93.7696 98.2598 93.8908 98.381 93.8908 98.6236V99.5938C94.0121 99.8363 93.7696 99.9576 93.6483 99.9576Z" fill="#D6DCE8"/>
<path d="M93.6483 105.051H80.7935C80.551 105.051 80.4297 104.93 80.4297 104.688V103.717C80.4297 103.475 80.551 103.354 80.7935 103.354H93.527C93.7696 103.354 93.8908 103.475 93.8908 103.717V104.688C94.0121 104.93 93.7696 105.051 93.6483 105.051Z" fill="#D6DCE8"/>
<path d="M93.6483 110.266H80.7935C80.551 110.266 80.4297 110.145 80.4297 109.902V108.932C80.4297 108.69 80.551 108.568 80.7935 108.568H93.527C93.7696 108.568 93.8908 108.69 93.8908 108.932V109.902C94.0121 110.024 93.7696 110.266 93.6483 110.266Z" fill="#D6DCE8"/>
<path d="M93.6483 115.36H80.7935C80.551 115.36 80.4297 115.239 80.4297 114.996V114.026C80.4297 113.783 80.551 113.662 80.7935 113.662H93.527C93.7696 113.662 93.8908 113.783 93.8908 114.026V114.996C94.0121 115.117 93.7696 115.36 93.6483 115.36Z" fill="#D6DCE8"/>
<path d="M93.6483 120.454H80.7935C80.551 120.454 80.4297 120.332 80.4297 120.09V119.12C80.4297 118.877 80.551 118.756 80.7935 118.756H93.527C93.7696 118.756 93.8908 118.877 93.8908 119.12V120.09C94.0121 120.332 93.7696 120.454 93.6483 120.454Z" fill="#D6DCE8"/>
<path d="M91.3484 125.545H83.2232C82.9807 125.545 82.8594 125.424 82.8594 125.182V124.211C82.8594 123.969 82.9807 123.848 83.2232 123.848H91.3484C91.5909 123.848 91.7122 123.969 91.7122 124.211V125.182C91.7122 125.424 91.4697 125.545 91.3484 125.545Z" fill="#D6DCE8"/>
<path d="M139.977 131.488H107.598V133.307H139.977V131.488Z" fill="#D6DCE8"/>
<path d="M125.182 136.338H107.598V138.157H125.182V136.338Z" fill="#D6DCE8"/>
<path d="M178.903 131.488H146.523V133.307H178.903V131.488Z" fill="#D6DCE8"/>
<path d="M164.108 136.338H146.523V138.157H164.108V136.338Z" fill="#D6DCE8"/>
<path d="M119.289 72.3667L144.961 67.2592C146.842 66.856 148.724 67.2592 150.203 68.2001L169.96 79.6246" stroke="#AAB2C5" stroke-width="2" stroke-miterlimit="10" stroke-linejoin="round"/>
<path opacity="0.1" d="M171.975 142.416L106.95 132.604C104.934 132.336 103.59 130.454 103.858 128.438L110.444 81.5298C110.713 79.5137 112.595 78.1697 114.611 78.4385L179.637 88.2502C181.653 88.519 182.997 90.4007 182.728 92.4168L176.142 139.325C175.873 141.206 173.992 142.685 171.975 142.416Z" fill="#3B589D"/>
<path d="M169.679 133.793L104.653 123.981C102.637 123.713 101.293 121.831 101.562 119.815L108.147 72.9068C108.416 70.8907 110.298 69.5466 112.314 69.8154L177.34 79.6271C179.356 79.8959 180.7 81.7776 180.431 83.7937L173.845 130.702C173.576 132.583 171.695 134.062 169.679 133.793Z" fill="white" stroke="#D6DCE8" stroke-width="2" stroke-miterlimit="10" stroke-linejoin="round"/>
<path d="M167.546 128.454L109.419 119.375C107.775 119.156 106.68 117.622 106.899 115.979L112.267 77.7467C112.486 76.1035 114.02 75.008 115.663 75.2271L173.79 84.3056C175.434 84.5247 176.529 86.0584 176.31 87.7016L170.942 125.934C170.723 127.468 169.189 128.673 167.546 128.454Z" fill="#F1F3F9"/>
<path d="M203.888 48.4169L212.984 57.5123C213.59 58.1187 214.439 58.4825 215.167 58.4825H237.966V37.1387H202.797V46.1128C203.039 47.083 203.282 47.8106 203.888 48.4169Z" fill="#F1F3F9" stroke="#D6DCE8" stroke-width="2" stroke-miterlimit="10" stroke-linejoin="round"/>
<path d="M223.641 46.8281L234.312 46.8281L234.312 40.6433L223.641 40.6433L223.641 46.8281Z" fill="white" stroke="#D6DCE8" stroke-width="2" stroke-miterlimit="10" stroke-linejoin="round"/>
<path d="M209.84 46.8281L220.512 46.8281L220.512 40.6433L209.84 40.6433L209.84 46.8281Z" fill="white" stroke="#D6DCE8" stroke-width="2" stroke-miterlimit="10" stroke-linejoin="round"/>
<path d="M2.21484 186.305H301.002" stroke="#CDD6E1" stroke-width="3" stroke-miterlimit="10" stroke-linecap="round" stroke-linejoin="round"/>
</svg>
