<svg width="160" height="107" viewBox="0 0 160 107" fill="none" xmlns="http://www.w3.org/2000/svg">
<path d="M79.8867 106.067C108.224 106.067 131.197 83.0935 131.197 54.6552C131.197 26.2168 108.123 3.24341 79.8867 3.24341C51.5495 3.24341 28.5762 26.2168 28.5762 54.6552C28.5762 83.0935 51.5495 106.067 79.8867 106.067Z" fill="#F1F3F9" stroke="#D6DCE8" stroke-miterlimit="10"/>
<path d="M137.711 38.3661C140.003 38.3661 141.86 36.5084 141.86 34.2168C141.86 31.9251 140.003 30.0674 137.711 30.0674C135.419 30.0674 133.562 31.9251 133.562 34.2168C133.562 36.5084 135.419 38.3661 137.711 38.3661Z" fill="#F1F3F9"/>
<path d="M143.783 22.1731C145.348 22.1731 146.617 20.9044 146.617 19.3393C146.617 17.7743 145.348 16.5056 143.783 16.5056C142.218 16.5056 140.949 17.7743 140.949 19.3393C140.949 20.9044 142.218 22.1731 143.783 22.1731Z" fill="#F1F3F9"/>
<path d="M30.9035 20.9538C32.4686 20.9538 33.7373 19.6851 33.7373 18.1201C33.7373 16.5551 32.4686 15.2864 30.9035 15.2864C29.3385 15.2864 28.0698 16.5551 28.0698 18.1201C28.0698 19.6851 29.3385 20.9538 30.9035 20.9538Z" fill="#F1F3F9"/>
<path d="M13.5976 75.6052C16.504 75.6052 18.8602 73.249 18.8602 70.3426C18.8602 67.4361 16.504 65.08 13.5976 65.08C10.6911 65.08 8.33496 67.4361 8.33496 70.3426C8.33496 73.249 10.6911 75.6052 13.5976 75.6052Z" fill="#F1F3F9"/>
<path d="M65.8118 82.0943L25.1407 90.4377C24.5462 90.53 24.0008 90.2211 23.9086 89.6265L11.5059 28.9143C11.4137 28.3198 11.7226 27.7744 12.3171 27.6821L52.9882 19.3387C53.5827 19.2465 54.1281 19.5554 54.2203 20.1499L66.6894 80.8593C66.7788 81.3874 66.4063 82.0021 65.8118 82.0943Z" fill="white" stroke="#C5CCDA" stroke-miterlimit="10"/>
<path d="M22.6984 58.1845L38.6121 54.9146" stroke="#D6DCE8" stroke-miterlimit="10" stroke-linecap="round" stroke-linejoin="round"/>
<path d="M43.355 53.9544L46.8498 53.2365" stroke="#D6DCE8" stroke-miterlimit="10" stroke-linecap="round" stroke-linejoin="round"/>
<path d="M51.0933 52.3601L54.5881 51.6423" stroke="#D6DCE8" stroke-miterlimit="10" stroke-linecap="round" stroke-linejoin="round"/>
<path d="M23.5768 62.4912L39.4905 59.2212" stroke="#D6DCE8" stroke-miterlimit="10" stroke-linecap="round" stroke-linejoin="round"/>
<path d="M44.2317 58.1981L47.7292 57.543" stroke="#D6DCE8" stroke-miterlimit="10" stroke-linecap="round" stroke-linejoin="round"/>
<path d="M51.9097 56.6684L55.4045 55.9505" stroke="#D6DCE8" stroke-miterlimit="10" stroke-linecap="round" stroke-linejoin="round"/>
<path d="M24.4533 66.7343L40.367 63.4644" stroke="#D6DCE8" stroke-miterlimit="10" stroke-linecap="round" stroke-linejoin="round"/>
<path d="M45.1104 62.5041L48.6052 61.7862" stroke="#D6DCE8" stroke-miterlimit="10" stroke-linecap="round" stroke-linejoin="round"/>
<path d="M52.7857 60.9134L56.2805 60.1955" stroke="#D6DCE8" stroke-miterlimit="10" stroke-linecap="round" stroke-linejoin="round"/>
<path d="M25.3295 70.9781L41.2459 67.771" stroke="#D6DCE8" stroke-miterlimit="10" stroke-linecap="round" stroke-linejoin="round"/>
<path d="M27.7997 82.9601L32.2919 82.0102" stroke="#D6DCE8" stroke-miterlimit="10" stroke-linecap="round" stroke-linejoin="round"/>
<path d="M27.1608 79.8395L35.1505 78.2346" stroke="#D6DCE8" stroke-miterlimit="10" stroke-linecap="round" stroke-linejoin="round"/>
<path d="M51.7087 76.7624L59.6355 75.1602" stroke="#D6DCE8" stroke-miterlimit="10" stroke-linecap="round" stroke-linejoin="round"/>
<path d="M45.9869 66.7474L49.4817 66.0295" stroke="#D6DCE8" stroke-miterlimit="10" stroke-linecap="round" stroke-linejoin="round"/>
<path d="M53.6646 65.2182L57.1594 64.5003" stroke="#D6DCE8" stroke-miterlimit="10" stroke-linecap="round" stroke-linejoin="round"/>
<path d="M28.0752 35.0905C26.7051 35.3786 25.7493 36.5484 25.5913 37.9744C25.5427 38.2874 25.768 38.5428 26.0665 38.6012C26.3649 38.6595 26.6023 38.4279 26.651 38.1149C26.7421 37.1874 27.43 36.3767 28.3069 36.1923C29.1838 36.0079 30.1278 36.4149 30.597 37.2851C30.7676 37.552 31.0782 37.6684 31.3278 37.4948C31.5775 37.3212 31.6809 36.9966 31.5103 36.7297C30.7792 35.4302 29.4454 34.8023 28.0752 35.0905Z" fill="#AAB2C5"/>
<path d="M40.6494 32.4465C39.2793 32.7347 38.3235 33.9045 38.1655 35.3305C38.1169 35.6435 38.3423 35.8989 38.6407 35.9572C38.9391 36.0156 39.1765 35.784 39.2252 35.471C39.3163 34.5435 40.0042 33.7327 40.8811 33.5484C41.758 33.364 42.7021 33.771 43.1712 34.6412C43.3418 34.9081 43.6524 35.0245 43.902 34.8509C44.1517 34.6772 44.2551 34.3527 44.0845 34.0858C43.3534 32.7862 42.0196 32.1584 40.6494 32.4465Z" fill="#AAB2C5"/>
<path d="M32.297 39.846L33.089 39.6733C34.0781 40.9893 35.9646 41.1523 37.2065 40.1155C37.7016 39.7522 38.0827 39.1585 38.2068 38.557L38.9989 38.3843C38.7406 40.4192 36.7599 41.8724 34.7727 41.5399C33.84 41.3604 32.8885 40.8021 32.297 39.846Z" fill="#AAB2C5"/>
<circle opacity="0.4" cx="45.0437" cy="39.9631" r="2.14153" transform="rotate(-11.8756 45.0437 39.9631)" fill="#D6DCE8"/>
<circle opacity="0.4" cx="27.0808" cy="43.7404" r="2.14153" transform="rotate(-11.8756 27.0808 43.7404)" fill="#D6DCE8"/>
<path d="M104.54 99.3295L59.6697 101.957C59.0223 102.024 58.5227 101.517 58.4555 100.87L54.5474 33.9956C54.4801 33.3482 54.9868 32.8486 55.6342 32.7814L100.505 30.1541C101.152 30.0868 101.652 30.5935 101.719 31.2409L105.627 98.1153C105.622 98.7622 105.188 99.2622 104.54 99.3295Z" fill="white" stroke="#C5CCDA" stroke-miterlimit="10"/>
<path d="M74.218 68.7421L95.767 67.4842" stroke="#D6DCE8" stroke-miterlimit="10" stroke-linecap="round" stroke-linejoin="round"/>
<path d="M74.0002 64.8123L95.4879 63.5539" stroke="#D6DCE8" stroke-miterlimit="10" stroke-linecap="round" stroke-linejoin="round"/>
<path d="M74.4353 72.6703L95.9843 71.4124" stroke="#D6DCE8" stroke-miterlimit="10" stroke-linecap="round" stroke-linejoin="round"/>
<path d="M64.5847 77.1416L96.2024 75.2804" stroke="#D6DCE8" stroke-miterlimit="10" stroke-linecap="round" stroke-linejoin="round"/>
<path d="M64.8018 81.0716L82.8777 79.9733" stroke="#D6DCE8" stroke-miterlimit="10" stroke-linecap="round" stroke-linejoin="round"/>
<path d="M65.5798 94.1995L70.0616 93.9246" stroke="#D6DCE8" stroke-miterlimit="10" stroke-linecap="round" stroke-linejoin="round"/>
<path d="M65.4175 91.1316L73.3374 90.6357" stroke="#D6DCE8" stroke-miterlimit="10" stroke-linecap="round" stroke-linejoin="round"/>
<path d="M89.1767 89.7038L97.0348 89.2689" stroke="#D6DCE8" stroke-miterlimit="10" stroke-linecap="round" stroke-linejoin="round"/>
<path d="M71.1832 73.5056C71.1217 73.5051 71.0603 73.5046 71.0607 73.4433L70.03 71.2278L66.1585 71.4412L65.4069 73.7647C65.4065 73.8261 65.3447 73.8868 65.2833 73.8863L64.4843 73.9411C64.4229 73.9406 64.3615 73.9401 64.3618 73.8788C64.3008 73.817 64.3008 73.817 64.3626 73.7562L67.1175 65.3797C67.1178 65.3184 67.1796 65.2576 67.2411 65.2581L68.3472 65.2059C68.4086 65.2064 68.47 65.2069 68.4697 65.2682L72.229 73.269C72.2286 73.3303 72.2282 73.3916 72.2282 73.3916C72.2278 73.4529 72.1664 73.4524 72.105 73.4519L71.1832 73.5056ZM66.4106 70.4011L69.5447 70.2429L67.7264 66.243L66.4106 70.4011Z" fill="#D6DCE8"/>
<path d="M86.2839 45.0532C87.2255 44.9931 87.9811 44.1345 87.9209 43.1929C87.8608 42.2514 87.0022 41.4958 86.0606 41.556C85.1191 41.6161 84.3635 42.4747 84.4237 43.4162C84.4881 44.4251 85.2751 45.1176 86.2839 45.0532Z" fill="#AAB2C5"/>
<path d="M72.6834 45.942C73.6249 45.8819 74.3805 45.0233 74.3204 44.0817C74.2602 43.1402 73.4016 42.3846 72.4601 42.4447C71.5185 42.5049 70.763 43.3635 70.8231 44.305C70.9547 45.3096 71.7418 46.0021 72.6834 45.942Z" fill="#AAB2C5"/>
<path d="M76.6953 49.0839C76.8599 50.639 78.1536 51.8097 79.6521 51.7252C81.1506 51.6408 82.3046 50.3323 82.2935 48.7685L76.6953 49.0839Z" fill="#AAB2C5"/>
<circle opacity="0.4" cx="89.9029" cy="50.9345" r="2.31674" transform="rotate(-3.22458 89.9029 50.9345)" fill="#D6DCE8"/>
<circle opacity="0.4" cx="70.0767" cy="52.0509" r="2.31674" transform="rotate(-3.22458 70.0767 52.0509)" fill="#D6DCE8"/>
<path d="M149.519 69.9259L109.266 80.0007C108.686 80.1599 108.119 79.8134 107.96 79.2332L92.9274 19.1437C92.7682 18.5635 93.1148 17.9967 93.6949 17.8374L133.948 7.76266C134.528 7.60341 135.095 7.94998 135.254 8.53016L150.287 68.6196C150.446 69.1998 150.099 69.7667 149.519 69.9259Z" fill="white" stroke="#C5CCDA" stroke-miterlimit="10"/>
<path d="M103.658 43.5005L108.647 63.4097L141.22 55.2466L136.231 35.3374L103.658 43.5005Z" stroke="#D6DCE8" stroke-miterlimit="10" stroke-linecap="round" stroke-linejoin="round"/>
<path d="M110.941 72.3876L115.526 71.2629" stroke="#D6DCE8" stroke-miterlimit="10" stroke-linecap="round" stroke-linejoin="round"/>
<path d="M110.103 69.2249L118.236 67.1784" stroke="#D6DCE8" stroke-miterlimit="10" stroke-linecap="round" stroke-linejoin="round"/>
<path d="M135.307 64.9337L143.44 62.8873" stroke="#D6DCE8" stroke-miterlimit="10" stroke-linecap="round" stroke-linejoin="round"/>
<path d="M111.617 41.5726L116.595 61.4709" stroke="#D6DCE8" stroke-miterlimit="10" stroke-linecap="round" stroke-linejoin="round"/>
<path d="M119.931 39.4543L124.97 59.3287" stroke="#D6DCE8" stroke-miterlimit="10" stroke-linecap="round" stroke-linejoin="round"/>
<path d="M128.329 37.3721L133.307 57.2704" stroke="#D6DCE8" stroke-miterlimit="10" stroke-linecap="round" stroke-linejoin="round"/>
<path d="M104.957 48.5551L137.49 40.3693" stroke="#D6DCE8" stroke-miterlimit="10" stroke-linecap="round" stroke-linejoin="round"/>
<path d="M106.166 53.526L138.722 45.4006" stroke="#D6DCE8" stroke-miterlimit="10" stroke-linecap="round" stroke-linejoin="round"/>
<path d="M107.458 58.5347L139.991 50.3489" stroke="#D6DCE8" stroke-miterlimit="10" stroke-linecap="round" stroke-linejoin="round"/>
<path d="M109.715 22.3394C108.082 22.7342 106.978 24.1718 106.84 25.8879C106.793 26.2651 107.072 26.5633 107.432 26.6225C107.792 26.6818 108.069 26.3955 108.116 26.0183C108.192 24.9026 108.988 23.9053 110.033 23.6526C111.078 23.3999 112.225 23.8542 112.819 24.8812C113.033 25.1952 113.41 25.3235 113.703 25.1063C113.996 24.8891 114.109 24.4962 113.895 24.1821C112.971 22.6496 111.348 21.9445 109.715 22.3394Z" fill="#AAB2C5"/>
<path d="M120.718 19.6801C119.221 20.042 118.231 21.4519 118.136 23.1575C118.1 23.5321 118.363 23.8342 118.696 23.9001C119.029 23.9659 119.278 23.6862 119.314 23.3116C119.363 22.2024 120.077 21.225 121.035 20.9933C121.993 20.7617 123.059 21.2357 123.626 22.2692C123.829 22.5859 124.178 22.7208 124.444 22.5102C124.71 22.2996 124.806 21.9106 124.603 21.5939C123.723 20.0509 122.215 19.3181 120.718 19.6801Z" fill="#AAB2C5"/>
<path d="M118.395 32.2021C119.38 31.9638 119.986 30.9719 119.747 29.9865C119.509 29.0011 118.517 28.3954 117.532 28.6337C116.546 28.8719 115.941 29.8639 116.179 30.8492C116.417 31.8346 117.409 32.4403 118.395 32.2021Z" fill="#AAB2C5"/>
</svg>
